<svg width="108" height="32" viewBox="0 0 108 32" fill="none" xmlns="http://www.w3.org/2000/svg">
<g clip-path="url(#clip0)">
<path d="M16.9529 15.0185C16.9245 11.5275 19.5335 9.82921 19.6528 9.75014C18.1752 7.36401 15.885 7.03799 15.0802 7.01199C13.1567 6.78779 11.2909 8.28683 10.311 8.28683C9.31161 8.28683 7.80271 7.03366 6.17648 7.07048C4.08378 7.10623 2.12604 8.44822 1.05231 10.5322C-1.1636 14.7813 0.489041 21.0255 2.61205 24.4601C3.67404 26.1433 4.91499 28.0203 6.53927 27.9542C8.12835 27.8828 8.72194 26.8332 10.6396 26.8332C12.5396 26.8332 13.097 27.9542 14.7536 27.912C16.459 27.8828 17.5328 26.2223 18.5576 24.5251C19.7849 22.5982 20.2777 20.6984 20.2973 20.6009C20.2582 20.5857 16.9861 19.2015 16.9529 15.0185Z" fill="white"/>
<path d="M13.9102 5.06493C14.7705 3.89793 15.3591 2.31026 15.1957 0.699097C13.9505 0.758888 12.3934 1.63333 11.4967 2.77471C10.7034 3.78048 9.99467 5.42901 10.1777 6.97931C11.5764 7.09249 13.0125 6.21377 13.9102 5.06493Z" fill="white"/>
<path d="M40.0526 27.3533H37.8119L36.5844 23.1834H32.3181L31.1489 27.3533H28.9673L33.1952 13.1572H35.806L40.0526 27.3533ZM36.2144 21.434L35.1044 17.7271C34.987 17.3484 34.766 16.4566 34.4424 15.0528H34.4029C34.2727 15.6566 34.0645 16.5484 33.7793 17.7271L32.6881 21.434H36.2144Z" fill="white"/>
<path d="M50.904 22.1092C50.904 23.8501 50.4669 25.2262 49.5917 26.2363C48.8083 27.1356 47.8345 27.5847 46.6732 27.5847C45.4191 27.5847 44.5173 27.1015 43.9697 26.1329V31.5039H41.8661V20.4813C41.8661 19.3879 41.8395 18.2668 41.7881 17.1169H43.6382L43.7556 18.7394H43.795C44.4966 17.5169 45.5612 16.9056 46.9899 16.9056C48.1068 16.9056 49.0392 17.3825 49.7851 18.3372C50.5301 19.2941 50.904 20.5507 50.904 22.1092ZM48.761 22.1924C48.761 21.196 48.5538 20.3747 48.1374 19.7271C47.6825 19.054 47.0718 18.717 46.3061 18.717C45.7871 18.717 45.3155 18.9047 44.8942 19.2749C44.4719 19.6482 44.1956 20.1357 44.0664 20.7395C44.0013 21.0211 43.9687 21.2504 43.9687 21.4318V23.1396C43.9687 23.8831 44.1798 24.5114 44.6021 25.0256C45.0244 25.5376 45.573 25.7947 46.2479 25.7947C47.0402 25.7947 47.6569 25.463 48.0979 24.8048C48.5399 24.1445 48.761 23.274 48.761 22.1924Z" fill="white"/>
<path d="M61.7939 22.1092C61.7939 23.8501 61.3568 25.2262 60.4816 26.2363C59.6972 27.1356 58.7244 27.5847 57.5621 27.5847C56.308 27.5847 55.4062 27.1015 54.8586 26.1329V31.5039H52.755V20.4813C52.755 19.3879 52.7284 18.2668 52.6771 17.1169H54.5271L54.6445 18.7394H54.684C55.3845 17.5169 56.4491 16.9056 57.8788 16.9056C58.9947 16.9056 59.9271 17.3825 60.675 18.3372C61.419 19.2941 61.7939 20.5507 61.7939 22.1092ZM59.6499 22.1924C59.6499 21.196 59.4417 20.3747 59.0253 19.7271C58.5705 19.054 57.9617 18.717 57.196 18.717C56.677 18.717 56.2054 18.9047 55.7821 19.2749C55.3598 19.6482 55.0845 20.1357 54.9553 20.7395C54.8912 21.0211 54.8566 21.2504 54.8566 21.4318V23.1396C54.8566 23.8831 55.0688 24.5114 55.4891 25.0256C55.9114 25.5366 56.46 25.7947 57.1368 25.7947C57.9301 25.7947 58.5468 25.463 58.9868 24.8048C59.4289 24.1445 59.6499 23.274 59.6499 22.1924Z" fill="white"/>
<path d="M73.9695 23.3711C73.9695 24.5797 73.5788 25.5622 72.8022 26.3206C71.9478 27.1484 70.7549 27.5634 69.2255 27.5634C67.8126 27.5634 66.6799 27.269 65.8255 26.6791L66.3119 24.7835C67.2344 25.3745 68.2478 25.6689 69.3509 25.6689C70.1441 25.6689 70.7608 25.4747 71.2009 25.0896C71.6419 24.7035 71.8649 24.1872 71.8649 23.5429C71.8649 22.9658 71.6804 22.4825 71.3183 22.0889C70.9542 21.6964 70.3523 21.3305 69.5067 20.9944C67.2078 20.0675 66.0573 18.7116 66.0573 16.9281C66.0573 15.7632 66.4638 14.8095 67.2749 14.0639C68.0859 13.3193 69.1614 12.947 70.4993 12.947C71.6942 12.947 72.6898 13.1721 73.4801 13.6212L72.9522 15.4752C72.2083 15.0399 71.3686 14.8223 70.4293 14.8223C69.6873 14.8223 69.1052 15.0197 68.6888 15.4122C68.3385 15.7632 68.1609 16.191 68.1609 16.6987C68.1609 17.2588 68.3632 17.7238 68.7658 18.0887C69.115 18.4247 69.7524 18.7906 70.674 19.1831C71.8047 19.676 72.6355 20.2499 73.1673 20.9091C73.7031 21.5684 73.9695 22.3908 73.9695 23.3711Z" fill="white"/>
<path d="M80.9423 18.8237H78.6236V23.7936C78.6236 25.0577 79.0321 25.6881 79.851 25.6881C80.227 25.6881 80.5387 25.654 80.7854 25.5825L80.8436 27.3095C80.4292 27.477 79.8836 27.5613 79.2077 27.5613C78.3769 27.5613 77.7277 27.2871 77.259 26.7388C76.7923 26.1905 76.5575 25.2721 76.5575 23.9792V18.8194H75.1762V17.1126H76.5575V15.2384L78.6236 14.5642V17.1126H80.9423V18.8237Z" fill="white"/>
<path d="M91.3833 22.1507C91.3833 23.7242 90.9669 25.016 90.1361 26.0262C89.2668 27.0662 88.1105 27.5847 86.6689 27.5847C85.2777 27.5847 84.1717 27.0865 83.3468 26.0912C82.522 25.0938 82.1095 23.8372 82.1095 22.3214C82.1095 20.7352 82.5358 19.4359 83.3853 18.4257C84.2368 17.4144 85.3833 16.9088 86.8248 16.9088C88.2141 16.9088 89.33 17.408 90.1746 18.4044C90.9817 19.3708 91.3833 20.6189 91.3833 22.1507ZM89.2027 22.203C89.2027 21.2653 89.0152 20.461 88.6393 19.7879C88.1983 18.9751 87.5668 18.5686 86.7489 18.5686C85.9062 18.5686 85.26 18.9751 84.8199 19.7879C84.443 20.461 84.2555 21.2792 84.2555 22.2457C84.2555 23.1844 84.443 23.9908 84.8199 24.6618C85.2748 25.4747 85.9092 25.8811 86.7311 25.8811C87.5352 25.8811 88.1657 25.4661 88.6216 24.6416C89.0083 23.9524 89.2027 23.1428 89.2027 22.203Z" fill="white"/>
<path d="M98.2239 19.117C98.0157 19.0754 97.7927 19.054 97.5608 19.054C96.8208 19.054 96.2486 19.3549 95.846 19.9608C95.4967 20.4941 95.3211 21.1683 95.3211 21.9822V27.3532H93.2175V20.3405C93.2175 19.1618 93.1968 18.0865 93.1563 17.1179H94.9886L95.0655 19.0764H95.1238C95.3467 18.4033 95.696 17.8604 96.1756 17.4539C96.6442 17.0881 97.1504 16.9056 97.696 16.9056C97.8904 16.9056 98.066 16.9206 98.2219 16.9472L98.2239 19.117Z" fill="white"/>
<path d="M107.632 21.7507C107.632 22.1582 107.607 22.5017 107.555 22.7823H101.244C101.268 23.7935 101.574 24.568 102.16 25.1014C102.692 25.5771 103.379 25.8161 104.224 25.8161C105.158 25.8161 106.011 25.6561 106.777 25.3328L107.107 26.9105C106.211 27.333 105.153 27.5431 103.933 27.5431C102.465 27.5431 101.312 27.0759 100.473 26.1435C99.6368 25.2102 99.2174 23.9557 99.2174 22.3844C99.2174 20.8419 99.6072 19.5565 100.388 18.5313C101.205 17.4369 102.309 16.8896 103.698 16.8896C105.062 16.8896 106.096 17.4369 106.797 18.5313C107.353 19.3986 107.632 20.4739 107.632 21.7507ZM105.626 21.1608C105.641 20.4856 105.503 19.9042 105.217 19.4125C104.853 18.7788 104.293 18.4631 103.542 18.4631C102.854 18.4631 102.294 18.7714 101.868 19.3901C101.517 19.8818 101.309 20.4728 101.245 21.1587L105.626 21.1608Z" fill="white"/>
<path d="M35.4765 7.7925H34.3755L33.7732 5.77863H31.6786L31.1039 7.7925H30.0324L32.1083 0.935303H33.3898L35.4765 7.7925ZM33.5918 4.93367L33.0467 3.14311C32.9896 2.95965 32.8841 2.53297 32.7215 1.85155H32.7017C32.6347 2.14614 32.5391 2.57386 32.3952 3.14311L31.8599 4.93367H33.5918Z" fill="white"/>
<path d="M40.6673 2.84851L38.9068 7.79248H37.9024L36.1991 2.84851H37.309L38.1035 5.46307C38.2375 5.90023 38.3519 6.31747 38.4376 6.71374H38.4662C38.5431 6.35835 38.6575 5.94111 38.8004 5.46307L39.585 2.84851H40.6673Z" fill="white"/>
<path d="M44.4151 7.79249L44.3382 7.22324H44.3096C43.9942 7.68136 43.5348 7.90466 42.9513 7.90466C42.1193 7.90466 41.5259 7.28404 41.5259 6.44956C41.5259 5.2293 42.5205 4.59819 44.2426 4.59819V4.50699C44.2426 3.85597 43.9173 3.52994 43.2766 3.52994C42.8172 3.52994 42.4151 3.65259 42.0622 3.89686L41.8522 3.17455C42.283 2.8894 42.8182 2.74683 43.4501 2.74683C44.6645 2.74683 45.2776 3.42825 45.2776 4.79214V6.6131C45.2776 7.11211 45.2973 7.49895 45.3446 7.79354L44.4151 7.79249ZM44.2712 5.32994C43.1228 5.32994 42.5491 5.62557 42.5491 6.32691C42.5491 6.84584 42.8458 7.09953 43.2569 7.09953C43.7832 7.09953 44.2712 6.67286 44.2712 6.09313V5.32994Z" fill="white"/>
<path d="M47.5782 2.03396C47.2342 2.03396 46.9661 1.74881 46.9661 1.37245C46.9661 0.996101 47.2431 0.721436 47.598 0.721436C47.9518 0.721436 48.2387 0.996101 48.2288 1.37245C48.2288 1.76978 47.9617 2.03396 47.5782 2.03396ZM48.1145 7.79249H47.0814V2.84852H48.1145V7.79249Z" fill="white"/>
<path d="M50.9829 7.79254H49.9499V0.579956H50.9829V7.79254Z" fill="white"/>
<path d="M55.3733 7.79256L55.2964 7.22331H55.2679C54.9524 7.68144 54.4931 7.90473 53.9095 7.90473C53.0776 7.90473 52.4842 7.28411 52.4842 6.44964C52.4842 5.22937 53.4788 4.59827 55.2008 4.59827V4.50706C55.2008 3.85604 54.8755 3.53001 54.2348 3.53001C53.7755 3.53001 53.3733 3.65266 53.0204 3.89693L52.8095 3.17357C53.2402 2.88842 53.7755 2.74585 54.4073 2.74585C55.6217 2.74585 56.2349 3.42727 56.2349 4.79116V6.61213C56.2349 7.11114 56.2556 7.49798 56.3009 7.79256H55.3733ZM55.2294 5.33001C54.081 5.33001 53.5074 5.62564 53.5074 6.32698C53.5074 6.84591 53.8041 7.09961 54.2151 7.09961C54.7415 7.09961 55.2294 6.67293 55.2294 6.0932V5.33001Z" fill="white"/>
<path d="M60.4202 7.90471C59.7607 7.90471 59.2738 7.60908 58.9584 7.02934H58.9377L58.8785 7.79254H57.9983C58.0269 7.39626 58.0367 6.94757 58.0367 6.4601V0.579956H59.0707V3.57192H59.0905C59.397 3.02259 59.8928 2.74792 60.573 2.74792C61.6928 2.74792 62.4774 3.76586 62.4774 5.25031C62.4774 6.78508 61.606 7.90471 60.4202 7.90471ZM60.2102 3.61071C59.6158 3.61071 59.0717 4.16004 59.0717 4.92323V5.78811C59.0717 6.46953 59.5606 7.02934 60.1925 7.02934C60.9663 7.02934 61.4266 6.35841 61.4266 5.29015C61.4256 4.29318 60.9466 3.61071 60.2102 3.61071Z" fill="white"/>
<path d="M65.0373 7.79254H64.0053V0.579956H65.0373V7.79254Z" fill="white"/>
<path d="M70.6609 5.58479H67.5598C67.5805 6.52096 68.1621 7.04932 69.0236 7.04932C69.4829 7.04932 69.9038 6.96755 70.2764 6.81554L70.4371 7.57873C69.9975 7.78211 69.481 7.8838 68.8787 7.8838C67.4238 7.8838 66.5632 6.90675 66.5632 5.3919C66.5632 3.876 67.4445 2.73645 68.7624 2.73645C69.9482 2.73645 70.6954 3.67262 70.6954 5.08683C70.6993 5.27972 70.6904 5.4527 70.6609 5.58479ZM69.7136 4.80168C69.7136 4.03849 69.3499 3.49964 68.6894 3.49964C68.096 3.49964 67.6288 4.04897 67.5598 4.80168H69.7136Z" fill="white"/>
<path d="M76.9222 7.90466C75.5638 7.90466 74.6836 6.82592 74.6836 5.36139C74.6836 3.835 75.5826 2.74683 77 2.74683C78.3377 2.74683 79.2386 3.7742 79.2386 5.28066C79.2386 6.82592 78.31 7.90466 76.9222 7.90466ZM76.9616 3.54985C76.2154 3.54985 75.7373 4.29208 75.7373 5.32994C75.7373 6.34787 76.2252 7.0901 76.9517 7.0901C77.6782 7.0901 78.1652 6.29651 78.1652 5.30897C78.1661 4.30256 77.6881 3.54985 76.9616 3.54985Z" fill="white"/>
<path d="M84.7922 7.79256H83.7601V4.95365C83.7601 4.07934 83.4447 3.64113 82.8227 3.64113C82.2106 3.64113 81.7887 4.20095 81.7887 4.85196V7.79256H80.7566V4.26175C80.7566 3.82459 80.7458 3.35598 80.7182 2.84754H81.627L81.6753 3.61073H81.7039C81.9799 3.08237 82.5457 2.74585 83.1766 2.74585C84.1514 2.74585 84.7922 3.53944 84.7922 4.831V7.79256Z" fill="white"/>
<path d="M91.5513 3.67262H90.4147V6.07332C90.4147 6.6845 90.6148 6.98956 91.016 6.98956C91.1984 6.98956 91.3521 6.9686 91.4754 6.9382L91.5039 7.77267C91.3029 7.85444 91.0337 7.89533 90.7016 7.89533C89.8873 7.89533 89.4014 7.41729 89.4014 6.16557V3.67262H88.7232V2.84862H89.4014V1.94286L90.4147 1.61682V2.84757H91.5513V3.67262Z" fill="white"/>
<path d="M97.022 7.79254H95.9879V4.9746C95.9879 4.0898 95.6725 3.64216 95.0505 3.64216C94.5153 3.64216 94.0185 4.029 94.0185 4.81211V7.79254H92.9845V0.579956H94.0185V3.5499H94.0382C94.3635 3.01106 94.8327 2.74583 95.435 2.74583C96.4197 2.74583 97.022 3.55934 97.022 4.85194V7.79254Z" fill="white"/>
<path d="M102.301 5.58479H99.2004C99.2201 6.52096 99.8017 7.04932 100.663 7.04932C101.124 7.04932 101.543 6.96755 101.916 6.81554L102.078 7.57873C101.638 7.78211 101.121 7.8838 100.518 7.8838C99.0634 7.8838 98.2029 6.90675 98.2029 5.3919C98.2029 3.876 99.0841 2.73645 100.402 2.73645C101.588 2.73645 102.335 3.67262 102.335 5.08683C102.339 5.27972 102.329 5.4527 102.301 5.58479ZM101.353 4.80168C101.353 4.03849 100.99 3.49964 100.33 3.49964C99.7357 3.49964 99.2684 4.04897 99.2004 4.80168H101.353Z" fill="white"/>
</g>
<defs>
<clipPath id="clip0">
<rect width="108" height="32" fill="white" transform="translate(0 0.00012207)"/>
</clipPath>
</defs>
</svg>
