<svg width="107" height="28" viewBox="0 0 107 28" fill="none" xmlns="http://www.w3.org/2000/svg">
<path d="M34.3316 4.32656C34.3316 5.14863 34.1024 5.80702 33.6509 6.29805C33.1317 6.88014 32.4556 7.17304 31.627 7.17304C30.8351 7.17304 30.1589 6.87522 29.6043 6.2882C29.0485 5.69257 28.7711 4.96157 28.7711 4.08658C28.7711 3.21159 29.0485 2.48059 29.6043 1.88988C30.1589 1.29794 30.8351 1.00012 31.627 1.00012C32.0212 1.00012 32.3971 1.0875 32.7558 1.24994C33.1134 1.41362 33.4045 1.63514 33.6153 1.90834L33.1363 2.42767C32.7684 1.96126 32.2676 1.73113 31.627 1.73113C31.0494 1.73113 30.5486 1.94772 30.1234 2.3846C29.7028 2.82271 29.492 3.39004 29.492 4.08658C29.492 4.78313 29.7028 5.35538 30.1234 5.79349C30.5486 6.22544 31.0494 6.44696 31.627 6.44696C32.2401 6.44696 32.7558 6.22544 33.1627 5.78856C33.4308 5.49936 33.5832 5.10063 33.6234 4.59114H31.627V3.87983H34.2903C34.3224 4.03366 34.3316 4.18257 34.3316 4.32656Z" fill="white"/>
<path fill-rule="evenodd" clip-rule="evenodd" d="M31.627 1.31262C30.924 1.31262 30.3296 1.5728 29.8323 2.10355C29.3355 2.63151 29.0836 3.28436 29.0836 4.08658C29.0836 4.88819 29.3347 5.54098 29.8321 6.07429C30.3295 6.6004 30.9241 6.86054 31.627 6.86054C32.3725 6.86054 32.9617 6.6013 33.4176 6.09005L33.4208 6.0865C33.8082 5.66524 34.0191 5.08841 34.0191 4.32656C34.0191 4.28129 34.0181 4.23662 34.0157 4.19233H31.9395V4.27864H33.9614L33.9349 4.61567C33.891 5.17355 33.7208 5.64626 33.3918 6.00104C32.9242 6.50315 32.3244 6.75946 31.627 6.75946C30.959 6.75946 30.3798 6.49944 29.9007 6.0127L29.898 6.00992C29.413 5.50471 29.1795 4.85055 29.1795 4.08658C29.1795 3.32193 29.4134 2.67296 29.898 2.16818L29.8995 2.16664C30.3803 1.67261 30.9606 1.41863 31.627 1.41863C32.2246 1.41863 32.733 1.59902 33.1353 1.96784L33.1922 1.90615C33.039 1.76209 32.8501 1.63686 32.6263 1.53435C32.3052 1.38901 31.9733 1.31262 31.627 1.31262ZM29.3762 1.6762C29.9882 1.02307 30.7462 0.687622 31.627 0.687622C32.069 0.687622 32.4886 0.785888 32.8847 0.965274L32.8859 0.965796C33.282 1.14714 33.6162 1.39802 33.8627 1.7174L34.0239 1.92627L33.1177 2.90872L32.8909 2.6212C32.5878 2.23687 32.1811 2.04363 31.627 2.04363C31.1386 2.04363 30.7175 2.22258 30.3481 2.60178C29.992 2.97312 29.8045 3.45857 29.8045 4.08658C29.8045 4.71491 29.9922 5.20482 30.3475 5.57567C30.7184 5.9519 31.1404 6.13446 31.627 6.13446C32.1557 6.13446 32.5877 5.94734 32.9337 5.57587C33.0863 5.41125 33.1995 5.19186 33.263 4.90364H31.3145V3.56733H34.5444L34.5963 3.81602C34.6342 3.9977 34.6441 4.16951 34.6441 4.32656C34.6441 5.20792 34.3971 5.94724 33.8825 6.50782C33.3004 7.15958 32.5378 7.48554 31.627 7.48554C30.7464 7.48554 29.9889 7.15028 29.3771 6.50283L29.3758 6.50141C28.7619 5.84359 28.4586 5.03459 28.4586 4.08658C28.4586 3.13883 28.7614 2.32966 29.3762 1.6762Z" fill="white"/>
<path d="M38.5564 1.86023H36.0546V3.73081H38.31V4.44212H36.0546V6.3127H38.5564V7.03755H35.3464V1.13538H38.5564V1.86023Z" fill="white"/>
<path fill-rule="evenodd" clip-rule="evenodd" d="M35.0339 0.822876H38.8689V2.17273H36.3671V3.41831H38.6225V4.75462H36.3671V6.0002H38.8689V7.35005H35.0339V0.822876ZM35.6589 1.44788V6.72505H38.2439V6.6252H35.7421V4.12962H37.9975V4.04331H35.7421V1.54773H38.2439V1.44788H35.6589Z" fill="white"/>
<path d="M41.5391 7.03755H40.8308V1.86023H39.2963V1.13538H43.0747V1.86023H41.5391V7.03755Z" fill="white"/>
<path fill-rule="evenodd" clip-rule="evenodd" d="M38.9838 0.822876H43.3872V2.17273H41.8516V7.35005H40.5183V2.17273H38.9838V0.822876ZM39.6088 1.44788V1.54773H41.1433V6.72505H41.2266V1.54773H42.7622V1.44788H39.6088Z" fill="white"/>
<path d="M45.8091 7.03755V1.13538H46.5162V7.03755H45.8091Z" fill="white"/>
<path fill-rule="evenodd" clip-rule="evenodd" d="M45.4966 0.822876H46.8287V7.35005H45.4966V0.822876ZM46.1216 1.44788V6.72505H46.2037V1.44788H46.1216Z" fill="white"/>
<path d="M49.6501 7.03755H48.9476V1.86023H47.4074V1.13538H51.1904V1.86023H49.6501V7.03755Z" fill="white"/>
<path fill-rule="evenodd" clip-rule="evenodd" d="M47.0949 0.822876H51.5029V2.17273H49.9626V7.35005H48.6351V2.17273H47.0949V0.822876ZM47.7199 1.44788V1.54773H49.2601V6.72505H49.3376V1.54773H50.8779V1.44788H47.7199Z" fill="white"/>
<path d="M58.3439 6.27836C57.8018 6.87522 57.1302 7.17304 56.3292 7.17304C55.5235 7.17304 54.8519 6.87522 54.3099 6.27836C53.7689 5.68273 53.4996 4.95172 53.4996 4.08658C53.4996 3.22144 53.7689 2.49043 54.3099 1.8948C54.8519 1.29794 55.5235 1.00012 56.3292 1.00012C57.1256 1.00012 57.7972 1.29794 58.3393 1.89972C58.8848 2.50028 59.1541 3.22636 59.1541 4.08658C59.1541 4.95172 58.8848 5.68273 58.3439 6.27836ZM54.8336 5.78364C55.2416 6.22544 55.7378 6.44696 56.3292 6.44696C56.9159 6.44696 57.4167 6.22544 57.8201 5.78364C58.227 5.34184 58.4332 4.77451 58.4332 4.08658C58.4332 3.39865 58.227 2.83132 57.8201 2.38952C57.4167 1.94772 56.9159 1.7262 56.3292 1.7262C55.7378 1.7262 55.2416 1.94772 54.8336 2.38952C54.4268 2.83132 54.2205 3.39865 54.2205 4.08658C54.2205 4.77451 54.4268 5.34184 54.8336 5.78364Z" fill="white"/>
<path fill-rule="evenodd" clip-rule="evenodd" d="M56.3292 1.31262C55.6118 1.31262 55.0242 1.57311 54.5412 2.1049L54.3099 1.8948L54.5412 2.1049C54.0569 2.63821 53.8121 3.29237 53.8121 4.08658C53.8121 4.88079 54.0569 5.53496 54.5412 6.06827C55.0242 6.60005 55.6118 6.86054 56.3292 6.86054C57.0416 6.86054 57.6294 6.60027 58.1125 6.06827C58.5968 5.53496 58.8416 4.88079 58.8416 4.08658C58.8416 3.29842 58.5976 2.64885 58.108 2.10984L58.1071 2.10887C57.6239 1.57248 57.0366 1.31262 56.3292 1.31262ZM54.0785 1.6847C54.6797 1.02277 55.4352 0.687622 56.3292 0.687622C57.2145 0.687622 57.9701 1.02325 58.5711 1.69012C59.1722 2.35212 59.4666 3.15453 59.4666 4.08658C59.4666 5.02265 59.1727 5.8305 58.5752 6.48845L58.5752 6.48846C57.9742 7.15018 57.2188 7.48554 56.3292 7.48554C55.4352 7.48554 54.6797 7.15039 54.0785 6.48846L54.0785 6.48845C53.481 5.8305 53.1871 5.02265 53.1871 4.08658C53.1871 3.15051 53.481 2.34266 54.0785 1.68471L54.0785 1.6847ZM54.604 2.17751C55.0695 1.67349 55.6481 1.4137 56.3292 1.4137C57.0047 1.4137 57.5887 1.67289 58.0505 2.17832C58.5174 2.68567 58.7457 3.33195 58.7457 4.08658C58.7457 4.84119 58.5174 5.48745 58.0505 5.9948C57.5888 6.50026 57.0047 6.75946 56.3292 6.75946C55.6481 6.75946 55.0695 6.49967 54.604 5.99565L54.6037 5.99533C54.1365 5.4879 53.908 4.84145 53.908 4.08658C53.908 3.33171 54.1365 2.68526 54.6037 2.17783L54.604 2.17751ZM55.0633 2.60139C54.717 2.97754 54.533 3.46569 54.533 4.08658C54.533 4.70751 54.717 5.19568 55.0634 5.57184C55.4139 5.95128 55.8276 6.13446 56.3292 6.13446C56.8269 6.13446 57.2443 5.95078 57.5894 5.57293L57.5902 5.57195C57.9366 5.19578 58.1207 4.70757 58.1207 4.08658C58.1207 3.46559 57.9366 2.97738 57.5902 2.60121L57.5894 2.60023C57.2443 2.22238 56.8269 2.0387 56.3292 2.0387C55.8275 2.0387 55.4138 2.22191 55.0633 2.60139Z" fill="white"/>
<path d="M60.1473 7.03755V1.13538H61.0069L63.6794 5.72568H63.7103L63.6794 4.59103V1.13538H64.3865V7.03755H63.6484L60.8498 2.2208H60.8189L60.8498 3.36038V7.03755H60.1473Z" fill="white"/>
<path fill-rule="evenodd" clip-rule="evenodd" d="M59.8348 0.822876H61.1865L63.3669 4.56784V0.822876H64.699V7.35005H63.4686L61.1623 3.38071V7.35005H59.8348V0.822876ZM60.4598 1.44788V6.72505H60.5373V3.36462L60.4978 1.9083H61.0297L63.8283 6.72505H64.074V1.44788H63.9919V4.58677L64.0314 6.03818H63.4997L60.8272 1.44788H60.4598Z" fill="white"/>
<path d="M53.3257 15.657C51.1723 15.657 49.4131 17.4168 49.4131 19.8449C49.4131 22.2532 51.1723 24.0315 53.3257 24.0315C55.4836 24.0315 57.2427 22.2532 57.2427 19.8449C57.2427 17.4168 55.4836 15.657 53.3257 15.657ZM53.3257 22.3825C52.1441 22.3825 51.1276 21.3352 51.1276 19.8449C51.1276 18.3349 52.1441 17.306 53.3257 17.306C54.5072 17.306 55.5283 18.3349 55.5283 19.8449C55.5283 21.3352 54.5072 22.3825 53.3257 22.3825ZM44.789 15.657C42.631 15.657 40.8765 17.4168 40.8765 19.8449C40.8765 22.2532 42.631 24.0315 44.789 24.0315C46.9458 24.0315 48.7015 22.2532 48.7015 19.8449C48.7015 17.4168 46.9458 15.657 44.789 15.657ZM44.789 22.3825C43.6063 22.3825 42.5863 21.3352 42.5863 19.8449C42.5863 18.3349 43.6063 17.306 44.789 17.306C45.9705 17.306 46.987 18.3349 46.987 19.8449C46.987 21.3352 45.9705 22.3825 44.789 22.3825ZM34.6307 16.9405V18.7201H38.5879C38.4721 19.7144 38.1627 20.4454 37.6882 20.9549C37.1106 21.5702 36.211 22.2532 34.6307 22.2532C32.1954 22.2532 30.2884 20.1427 30.2884 17.5276C30.2884 14.9124 32.1954 12.8019 34.6307 12.8019C35.9474 12.8019 36.9055 13.3544 37.6126 14.0707L38.7804 12.8166C37.7914 11.8026 36.4757 11.0236 34.6307 11.0236C31.2912 11.0236 28.4846 13.9415 28.4846 17.5276C28.4846 21.1137 31.2912 24.0315 34.6307 24.0315C36.4356 24.0315 37.7914 23.3965 38.8572 22.2052C39.9493 21.0324 40.2897 19.3834 40.2897 18.0518C40.2897 17.6383 40.2576 17.258 40.2003 16.9405H34.6307ZM76.1692 18.3201C75.8472 17.3836 74.8536 15.657 72.8297 15.657C70.8242 15.657 69.1545 17.354 69.1545 19.8449C69.1545 22.1905 70.807 24.0315 73.0223 24.0315C74.8135 24.0315 75.8472 22.8587 76.2724 22.1757L74.943 21.2244C74.4995 21.921 73.8955 22.3825 73.0223 22.3825C72.1547 22.3825 71.5324 21.9554 71.1336 21.1137L76.3492 18.7964L76.1692 18.3201ZM70.8517 19.7144C70.807 18.0998 72.0195 17.2728 72.8882 17.2728C73.5689 17.2728 74.1465 17.6383 74.3391 18.1613L70.8517 19.7144ZM66.6126 23.7768H68.327V11.4703L66.6126 11.4703V23.7768ZM63.8048 16.5898H63.7475C63.3625 16.1 62.6279 15.657 61.6973 15.657C59.7445 15.657 57.959 17.498 57.959 19.8584C57.959 22.2052 59.7445 24.0315 61.6973 24.0315C62.6279 24.0315 63.3625 23.5848 63.7475 23.0802H63.8048V23.6808C63.8048 25.2819 63.0084 26.1421 61.7237 26.1421C60.6762 26.1421 60.0264 25.3298 59.7583 24.6468L58.2673 25.3151C58.697 26.4251 59.835 27.7911 61.7237 27.7911C63.7338 27.7911 65.4299 26.5211 65.4299 23.431V15.9117H63.8048V16.5898ZM61.844 22.3825C60.6625 22.3825 59.6735 21.3204 59.6735 19.8584C59.6735 18.3829 60.6625 17.306 61.844 17.306C63.0084 17.306 63.9263 18.3829 63.9263 19.8584C63.9263 21.3204 63.0084 22.3825 61.844 22.3825ZM84.196 11.4703H80.0955V23.7768H81.8054V19.1139H84.196C86.0949 19.1139 87.9572 17.6383 87.9572 15.2915C87.9572 12.9459 86.0903 11.4703 84.196 11.4703ZM84.2407 17.402H81.8054V13.1821H84.2407C85.5173 13.1821 86.2462 14.3205 86.2462 15.2915C86.2462 16.244 85.5173 17.402 84.2407 17.402ZM94.8104 15.6336C93.575 15.6336 92.2903 16.2194 91.762 17.5177L93.2793 18.2007C93.6059 17.5177 94.2064 17.2962 94.8413 17.2962C95.7283 17.2962 96.628 17.8684 96.6417 18.8788V19.008C96.3323 18.816 95.6699 18.5318 94.8551 18.5318C93.2208 18.5318 91.5557 19.4978 91.5557 21.3007C91.5557 22.9498 92.8942 24.0118 94.399 24.0118C95.5496 24.0118 96.1845 23.4543 96.5833 22.8058H96.6417V23.7571L98.2931 23.7571V19.0363C98.2931 16.8544 96.7758 15.6336 94.8104 15.6336ZM94.6041 22.3775C94.0448 22.3775 93.2655 22.0797 93.2655 21.3352C93.2655 20.3827 94.2374 20.0172 95.0785 20.0172C95.8315 20.0172 96.1845 20.1956 96.6417 20.4306C96.5076 21.5702 95.5943 22.3775 94.6041 22.3775ZM104.31 15.9031L102.344 21.238H102.286L100.254 15.9031H98.41L101.463 23.3584L99.7211 27.5069H101.508L106.212 15.9031H104.31ZM88.8969 23.7768H90.6114V11.4703H88.8969V23.7768Z" fill="white"/>
<path d="M0.425173 1.66326C0.155859 1.966 0 2.43734 0 3.04774L0 24.8203C0 25.4307 0.155859 25.902 0.425173 26.2048L0.491642 26.2712L11.8533 14.0755V13.7876L0.491642 1.59188L0.425173 1.66326Z" fill="url(#paint0_linear)"/>
<path d="M15.6363 18.1427L11.8533 14.0754V13.7874L15.6409 9.72016L15.7257 9.77308L20.2112 12.5137C21.4913 13.2915 21.4913 14.5714 20.2112 15.3541L15.7257 18.0898L15.6363 18.1427Z" fill="url(#paint1_linear)"/>
<path d="M15.7265 18.0898L11.8541 13.9314L0.426025 26.2047C0.851198 26.6846 1.54454 26.7425 2.333 26.2625L15.7265 18.0898Z" fill="url(#paint2_linear)"/>
<path d="M15.7265 9.77341L2.333 1.6007C1.54454 1.12567 0.851198 1.18351 0.426025 1.66346L11.8541 13.9318L15.7265 9.77341Z" fill="url(#paint3_linear)"/>
<defs>
<linearGradient id="paint0_linear" x1="7.32719" y1="25.047" x2="-3.34892" y2="15.7608" gradientUnits="userSpaceOnUse">
<stop stop-color="#00A0FF"/>
<stop offset="0.0066" stop-color="#00A1FF"/>
<stop offset="0.2601" stop-color="#00BEFF"/>
<stop offset="0.5122" stop-color="#00D2FF"/>
<stop offset="0.7604" stop-color="#00DFFF"/>
<stop offset="1" stop-color="#00E3FF"/>
</linearGradient>
<linearGradient id="paint1_linear" x1="21.8781" y1="13.9301" x2="-0.305984" y2="13.9301" gradientUnits="userSpaceOnUse">
<stop stop-color="#FFE000"/>
<stop offset="0.4087" stop-color="#FFBD00"/>
<stop offset="0.7754" stop-color="#FFA500"/>
<stop offset="1" stop-color="#FF9C00"/>
</linearGradient>
<linearGradient id="paint2_linear" x1="13.6208" y1="15.4957" x2="-4.41347" y2="-0.190744" gradientUnits="userSpaceOnUse">
<stop stop-color="#FF3A44"/>
<stop offset="1" stop-color="#C31162"/>
</linearGradient>
<linearGradient id="paint3_linear" x1="-2.45066" y1="21.9336" x2="5.60065" y2="14.9305" gradientUnits="userSpaceOnUse">
<stop stop-color="#32A071"/>
<stop offset="0.0685" stop-color="#2DA771"/>
<stop offset="0.4762" stop-color="#15CF74"/>
<stop offset="0.8009" stop-color="#06E775"/>
<stop offset="1" stop-color="#00F076"/>
</linearGradient>
</defs>
</svg>
